<svg width="1024" height="1024" viewBox="0 0 270.933 270.933" xmlns:xlink="http://www.w3.org/1999/xlink" xmlns="http://www.w3.org/2000/svg"><defs><linearGradient id="prefix__a"><stop offset="0" stop-color="#0007ff" stop-opacity=".946"/><stop offset="1" stop-color="#ff1200" stop-opacity=".706"/></linearGradient><linearGradient xlink:href="#prefix__a" id="prefix__b" x1="88.931" y1="237.026" x2="189.537" y2="68.307" gradientUnits="userSpaceOnUse"/><linearGradient xlink:href="#prefix__a" id="prefix__c" gradientUnits="userSpaceOnUse" x1="88.931" y1="237.026" x2="189.537" y2="68.307" gradientTransform="translate(-10 -10)"/><linearGradient xlink:href="#prefix__a" id="prefix__d" gradientUnits="userSpaceOnUse" gradientTransform="translate(-20 -20)" x1="88.931" y1="237.026" x2="189.537" y2="68.307"/></defs><g stroke="#000" stroke-width="6.111" stroke-linecap="square"><path d="M149.775 33.097l-97.05 183.559h28.588S149.775 89.004 149.775 89.71v110.133a22.022 22.022 0 00-6.872 15.972c0 12.162 9.86 22.022 22.023 22.022 12.162 0 22.022-9.86 22.022-22.022a22.022 22.022 0 00-6.444-15.563v-85.25h39.721V89.71h-39.72V33.097z" opacity=".5" fill="url(#prefix__b)" transform="translate(10 10)"/><path d="M139.775 23.097l-97.05 183.559h28.588S139.775 79.004 139.775 79.71v110.132a22.022 22.022 0 00-6.872 15.972c0 12.162 9.86 22.022 22.022 22.022 12.163 0 22.022-9.86 22.022-22.022a22.022 22.022 0 00-6.443-15.563v-85.25h39.72V79.71h-39.72V23.097z" opacity=".75" fill="url(#prefix__c)" transform="translate(10 10)"/><path d="M129.775 13.097l-97.05 183.559h28.588S129.775 69.004 129.775 69.71v110.132a22.022 22.022 0 00-6.872 15.972c0 12.162 9.86 22.022 22.022 22.022 12.163 0 22.022-9.86 22.022-22.022a22.022 22.022 0 00-6.443-15.563v-85.25h39.72V69.71h-39.72V13.097z" fill="url(#prefix__d)" transform="translate(10 10)"/></g></svg>